<svg id="Layer_2" data-name="Layer 2" xmlns="http://www.w3.org/2000/svg" viewBox="0 0 100 100"><defs><style>.cls-1{fill:#111;}</style></defs><path class="cls-1" d="M48.26,34.18a10.07,10.07,0,0,1,1.81,6A8.78,8.78,0,0,1,48.25,46a9.26,9.26,0,0,1-3,2.24,8.78,8.78,0,0,1,4.55,3.47,10.45,10.45,0,0,1,1.53,5.77,11.48,11.48,0,0,1-1.75,6.27,10.6,10.6,0,0,1-2.79,3.09,10.71,10.71,0,0,1-4.44,2,27,27,0,0,1-5.56.53H19.05V30h19Q45.26,30.1,48.26,34.18ZM27.49,36.83V45.5h9a8,8,0,0,0,4.16-1,3.72,3.72,0,0,0,1.6-3.46,3.52,3.52,0,0,0-2.11-3.63,14.85,14.85,0,0,0-4.65-.61Zm0,15.18V62.5h9a9.38,9.38,0,0,0,4-.69C42.16,61,43,59.32,43,56.9a4.22,4.22,0,0,0-2.51-4.22A9.9,9.9,0,0,0,36.58,52Z"/><path class="cls-1" d="M73.67,41.78a11.34,11.34,0,0,1,4.81,4.12,13.67,13.67,0,0,1,2.22,5.76,35.7,35.7,0,0,1,.24,5.52H60.66c.11,2.8,1.08,4.75,2.91,5.88a7.38,7.38,0,0,0,4,1A6.27,6.27,0,0,0,71.33,63a4.82,4.82,0,0,0,2-3h7.44a12.05,12.05,0,0,1-3,5.91Q74.11,70,67.38,70a15.18,15.18,0,0,1-9.81-3.43q-4.24-3.42-4.25-11.15,0-7.23,3.84-11.09a13.42,13.42,0,0,1,10-3.87A15.86,15.86,0,0,1,73.67,41.78ZM62.78,48.07a7.54,7.54,0,0,0-1.94,4.31H73.38A6.07,6.07,0,0,0,71.44,48a6.38,6.38,0,0,0-4.32-1.5A5.75,5.75,0,0,0,62.78,48.07Z"/><rect class="cls-1" x="59.19" y="33.14" width="15.47" height="4.5"/></svg>