<svg id="Layer_2" data-name="Layer 2" xmlns="http://www.w3.org/2000/svg" viewBox="0 0 100 100"><defs><style>.cls-1{fill:#111;}</style></defs><path class="cls-1" d="M26.64,50.1v0A6.69,6.69,0,0,0,31,47.85a6.33,6.33,0,0,0,1.41-4.13,6.75,6.75,0,0,0-2.48-5.63q-2.49-2-7.71-2H8.44V64.36H22.83q5.15,0,7.71-2a6.71,6.71,0,0,0,2.57-5.63,6.41,6.41,0,0,0-1.61-4.39A7.56,7.56,0,0,0,26.64,50.1ZM15.55,41.5H20.9c2.63,0,3.94,1,3.94,3.08s-1.31,3.08-3.94,3.08H15.55Zm9,16.87a4.67,4.67,0,0,1-3,.81h-6V52.93h6a4.74,4.74,0,0,1,3,.79,2.78,2.78,0,0,1,1,2.29A2.9,2.9,0,0,1,24.59,58.37Z"/><path class="cls-1" d="M45.4,59.7a1.92,1.92,0,0,1-1.59-.6,3.37,3.37,0,0,1-.47-2V33.87H36.06V58c0,2.4.52,4.13,1.54,5.19s2.69,1.58,5,1.58a10.37,10.37,0,0,0,2.44-.3,7.09,7.09,0,0,0,2-.77l.48-4.37c-.4.12-.75.2-1,.26A5.34,5.34,0,0,1,45.4,59.7Z"/><path class="cls-1" d="M65.2,43.83a13.94,13.94,0,0,0-11.8,0,9.48,9.48,0,0,0-4,3.81,11.89,11.89,0,0,0-1.43,6,11.86,11.86,0,0,0,1.43,6,9.48,9.48,0,0,0,4,3.81,13.94,13.94,0,0,0,11.8,0,9.43,9.43,0,0,0,4-3.81,11.86,11.86,0,0,0,1.44-6,11.9,11.9,0,0,0-1.44-6A9.43,9.43,0,0,0,65.2,43.83ZM62.83,57.06A3.91,3.91,0,0,1,61.46,59a3.79,3.79,0,0,1-2.19.62A3.7,3.7,0,0,1,57.13,59a3.79,3.79,0,0,1-1.37-1.93,10.3,10.3,0,0,1-.47-3.4,10.58,10.58,0,0,1,.47-3.43,3.71,3.71,0,0,1,1.37-1.93,3.76,3.76,0,0,1,2.14-.6,3.45,3.45,0,0,1,3.56,2.53,10.58,10.58,0,0,1,.47,3.43A10.3,10.3,0,0,1,62.83,57.06Z"/><path class="cls-1" d="M92.44,61.17a9.12,9.12,0,0,0-5.72-1.56H79.91a3.57,3.57,0,0,1-1.8-.36,1.21,1.21,0,0,1-.6-1.1A1.37,1.37,0,0,1,78.2,57a2.51,2.51,0,0,1,.77-.33A19.82,19.82,0,0,0,83,57a16.63,16.63,0,0,0,5.57-.83,7.4,7.4,0,0,0,3.53-2.47,7,7,0,0,0,0-7.9,7,7,0,0,0-2-1.69,3,3,0,0,1,.75-1.26A3.79,3.79,0,0,1,93.66,42a4.35,4.35,0,0,1,.51,0,1.87,1.87,0,0,1,.51.11l-.6-4.89a2,2,0,0,0-.36,0H93.4a5.4,5.4,0,0,0-3.4,1,6.08,6.08,0,0,0-2,2.65,9,9,0,0,0-.55,2.2,17.48,17.48,0,0,0-4.5-.53,16.22,16.22,0,0,0-5.61.86,7.59,7.59,0,0,0-3.53,2.46,6.37,6.37,0,0,0-1.22,4,6.21,6.21,0,0,0,2.63,5.36,9.6,9.6,0,0,0,.83.5,6,6,0,0,0-1.79,1A4.05,4.05,0,0,0,72.63,60a4.24,4.24,0,0,0,1.29,3.26,5.16,5.16,0,0,0,1.85,1.05,6,6,0,0,0-2.62,1,3.47,3.47,0,0,0-1.46,2.91,4.41,4.41,0,0,0,2.57,3.94q2.56,1.45,8.39,1.46a19.59,19.59,0,0,0,6.23-.88A8.68,8.68,0,0,0,93,70.06a6.68,6.68,0,0,0,1.46-4.41A5.38,5.38,0,0,0,92.44,61.17ZM80.66,47.49a3.61,3.61,0,0,1,4.56,0,3,3,0,0,1,.9,2.31,2.9,2.9,0,0,1-.9,2.27,3.58,3.58,0,0,1-4.56,0,2.92,2.92,0,0,1-.88-2.27A3,3,0,0,1,80.66,47.49Zm7.47,20.32a5.45,5.45,0,0,1-2,.77,17,17,0,0,1-3.41.28,12.08,12.08,0,0,1-4.06-.54c-1-.35-1.46-.86-1.46-1.52a1.37,1.37,0,0,1,.49-1.07A2,2,0,0,1,79,65.3h7.66a3,3,0,0,1,1.72.37,1.21,1.21,0,0,1,.47,1A1.4,1.4,0,0,1,88.13,67.81Z"/></svg>