<svg width="166" height="100" viewBox="0 0 166 100" fill="none" xmlns="http://www.w3.org/2000/svg">
<path d="M7.33391 66V35.8578H21.994C25.7085 35.8882 28.4487 36.6037 30.2146 38.0043C31.9805 39.3744 32.8634 41.3686 32.8634 43.9871C32.8634 45.6921 32.3611 47.1687 31.3563 48.417C30.3516 49.6349 28.814 50.4113 26.7437 50.7462V50.7919C29.0576 51.0964 30.7778 51.9032 31.9044 53.2124C33.0613 54.4912 33.6398 56.0439 33.6398 57.8707C33.6398 60.4587 32.7264 62.4682 30.8996 63.8992C29.0728 65.2997 26.3326 66 22.679 66H7.33391ZM14.9151 60.4739H21.3546C22.7856 60.4739 23.8512 60.1847 24.5515 59.6062C25.2518 59.0277 25.6019 58.1904 25.6019 57.0944C25.6019 56.0287 25.2518 55.2219 24.5515 54.6738C23.8512 54.0954 22.7856 53.8061 21.3546 53.8061H14.9151V60.4739ZM14.9151 48.1887H20.6239C23.425 48.1887 24.8255 47.0926 24.8255 44.9005C24.8255 42.7083 23.425 41.6122 20.6239 41.6122H14.9151V48.1887ZM37.0922 66V43.165H43.9427L44.2624 48.0974C44.8409 46.3923 45.6934 45.0679 46.8199 44.1241C47.9769 43.1802 49.4383 42.7083 51.2042 42.7083C51.7827 42.7083 52.2699 42.754 52.6657 42.8453C53.0919 42.9367 53.4268 43.0584 53.6704 43.2107L52.894 49.6045C52.5895 49.4827 52.1937 49.3913 51.7066 49.3305C51.2499 49.2391 50.6866 49.1934 50.0168 49.1934C49.1034 49.1934 48.2509 49.3913 47.4593 49.7871C46.6677 50.183 46.0283 50.7767 45.5411 51.5683C45.0844 52.3294 44.8561 53.3037 44.8561 54.4912V66H37.0922ZM63.5209 66.4567C61.9681 66.4567 60.598 66.1979 59.4106 65.6803C58.2536 65.1323 57.3402 64.2645 56.6704 63.0771C56.0005 61.8897 55.6656 60.3369 55.6656 58.4188V43.165H63.4295V56.592C63.4295 58.0534 63.7188 59.0734 64.2972 59.6519C64.8757 60.2304 65.6978 60.5196 66.7634 60.5196C67.3115 60.5196 67.8291 60.4283 68.3162 60.2456C68.8033 60.0325 69.2296 59.728 69.595 59.3322C69.9603 58.9059 70.2343 58.3731 70.417 57.7337C70.6301 57.0639 70.7367 56.2875 70.7367 55.4046V43.165H78.5006V66H71.5588L71.3304 61.707C70.5997 63.3207 69.5797 64.5233 68.2705 65.315C66.9613 66.0761 65.3781 66.4567 63.5209 66.4567ZM83.1654 66V43.165H90.1072L90.5182 51.0202L89.6505 50.1525C89.955 48.5084 90.4878 47.1383 91.249 46.0422C92.0406 44.9461 93.0149 44.1241 94.1718 43.576C95.3593 42.9975 96.6837 42.7083 98.1451 42.7083C99.7284 42.7083 101.098 43.0128 102.255 43.6217C103.443 44.2306 104.371 45.1288 105.041 46.3162C105.711 47.5036 106.046 48.9955 106.046 50.7919V66H98.2821V52.847C98.2821 51.2638 97.9777 50.1677 97.3687 49.5588C96.7598 48.9499 95.9834 48.6454 95.0396 48.6454C94.3089 48.6454 93.6238 48.8281 92.9844 49.1934C92.345 49.5284 91.8427 50.0764 91.4773 50.8376C91.112 51.5987 90.9293 52.6187 90.9293 53.8974V66H83.1654ZM121.397 42.7083C123.71 42.7083 125.629 43.0432 127.151 43.713C128.704 44.3524 129.906 45.2202 130.759 46.3162C131.642 47.3819 132.19 48.5388 132.403 49.7871L125.233 52.162C125.02 50.8528 124.624 49.8785 124.045 49.2391C123.497 48.5693 122.691 48.2344 121.625 48.2344C120.651 48.2344 119.829 48.4627 119.159 48.9194C118.519 49.3457 118.032 50.0459 117.697 51.0202C117.362 51.9641 117.195 53.182 117.195 54.6738C117.195 56.1657 117.378 57.3836 117.743 58.3274C118.108 59.2408 118.626 59.9107 119.296 60.3369C119.966 60.7327 120.757 60.9306 121.671 60.9306C122.432 60.9306 123.056 60.7936 123.543 60.5196C124.061 60.2151 124.487 59.7889 124.822 59.2408C125.157 58.6928 125.37 58.023 125.461 57.2314L132.449 59.4692C132.236 60.8088 131.657 62.0115 130.713 63.0771C129.8 64.1123 128.582 64.9344 127.06 65.5433C125.537 66.1522 123.756 66.4567 121.716 66.4567C119.22 66.4567 117.043 66 115.185 65.0866C113.328 64.1428 111.897 62.7879 110.892 61.022C109.888 59.2256 109.385 57.0791 109.385 54.5825C109.385 52.0859 109.888 49.9546 110.892 48.1887C111.897 46.3923 113.298 45.0375 115.094 44.1241C116.921 43.1802 119.022 42.7083 121.397 42.7083ZM135.572 66V33.483H143.336V47.321C144.005 45.7986 144.964 44.6569 146.213 43.8957C147.461 43.1041 148.907 42.7083 150.551 42.7083C152.135 42.7083 153.505 43.0128 154.662 43.6217C155.849 44.2306 156.778 45.1288 157.448 46.3162C158.117 47.5036 158.452 48.9955 158.452 50.7919V66H150.688V52.9384C150.688 51.2943 150.384 50.1677 149.775 49.5588C149.197 48.9194 148.42 48.5997 147.446 48.5997C146.715 48.5997 146.03 48.7824 145.391 49.1478C144.751 49.5131 144.249 50.0916 143.884 50.8832C143.518 51.6748 143.336 52.71 143.336 53.9888V66H135.572Z" fill="#111111"/>
</svg>
