<svg id="Layer_2" data-name="Layer 2" xmlns="http://www.w3.org/2000/svg" viewBox="0 0 100 100"><defs><style>.cls-1{fill:#111;}</style></defs><path class="cls-1" d="M24.45,34.67a5.09,5.09,0,0,1,5.11-5.11H70.44a5.09,5.09,0,0,1,5.11,5.11V65.33a5.09,5.09,0,0,1-5.11,5.11H29.56a5.09,5.09,0,0,1-5.11-5.11Zm6.87-.52L49.68,50.21a.49.49,0,0,0,.64,0L68.24,34.53a.48.48,0,0,0-.32-.85H31.49A.27.27,0,0,0,31.32,34.15Zm39.79,4.23a.45.45,0,0,0-.74-.31L51.74,54.47a2.62,2.62,0,0,1-3.48,0L29.63,38.07a.45.45,0,0,0-.74.31V65.3a.45.45,0,0,0,.46.44H70.67a.43.43,0,0,0,.44-.42Z"/></svg>