<svg id="Layer_2" data-name="Layer 2" xmlns="http://www.w3.org/2000/svg" viewBox="0 0 100 100"><defs><style>.cls-1{fill:#111;}</style></defs><path class="cls-1" d="M61.92,35.61a2.45,2.45,0,1,0,2.45,2.45A2.45,2.45,0,0,0,61.92,35.61Z"/><path class="cls-1" d="M50,38.52A11.48,11.48,0,1,0,61.48,50,11.49,11.49,0,0,0,50,38.52Zm0,18.53a7,7,0,1,1,7-7A7.06,7.06,0,0,1,50,57.05Z"/><path class="cls-1" d="M56.89,26.88H43.27c-9.83,0-16.39,3-16.39,17.41V55.53c0,16.24,8.46,17.59,17.88,17.59H56c9,0,17.12-1.35,17.12-17.65V44.24C73.12,29,65.32,26.88,56.89,26.88Zm11.39,28.4c0,12.37-4.75,13-12.5,13H45c-8.2,0-13.23-.62-13.23-13V44.5c0-10.94,3.64-12.78,11.79-12.78H56.64c7.89,0,11.64,1.9,11.64,12.72Z"/></svg>